<svg id="图层_1" data-name="图层 1" xmlns="http://www.w3.org/2000/svg" viewBox="0 0 194.47 43.32"><defs><style>.cls-1{fill:#a79776;}</style></defs><title>Grand LOGO Horizontal black</title><path class="cls-1" d="M38.44,0a7,7,0,0,1,4.71,2.1L57.81,16.77a6.91,6.91,0,0,1,2.1,4.71,6.65,6.65,0,0,1-2,4.94L43.15,41.22a6.93,6.93,0,0,1-4.71,2.1h-.19a6.69,6.69,0,0,1-4.76-2L31,38.81l3.6-3.6L37,37.69a1.75,1.75,0,0,0,1,.53l.21,0a1.62,1.62,0,0,0,1.17-.49L54.35,22.83a1.65,1.65,0,0,0,0-2.33L39.48,5.63a1.82,1.82,0,0,0-1-.53h-.22a1.63,1.63,0,0,0-1.16.48L21,21.66l2.68,2.68,2.49-2.49,3.6,3.59-4.44,4.44a2.33,2.33,0,0,1-3.31,0L13.8,21.66,33.49,2a6.69,6.69,0,0,1,4.76-2Z"/><path class="cls-1" d="M21.48,43.32a6.91,6.91,0,0,1-4.71-2.1L2.1,26.56A7,7,0,0,1,0,21.84,6.68,6.68,0,0,1,2,16.9L16.77,2.1A7,7,0,0,1,21.48,0h.18a6.69,6.69,0,0,1,4.76,2L29,4.51l-3.6,3.6L22.89,5.63a1.82,1.82,0,0,0-1-.53h-.22a1.63,1.63,0,0,0-1.16.48L5.57,20.5a1.65,1.65,0,0,0,0,2.33L20.43,37.69a1.75,1.75,0,0,0,1,.53l.22,0a1.62,1.62,0,0,0,1.17-.49L38.92,21.66,36.24,19l-2.5,2.5-3.6-3.6,4.44-4.44a2.33,2.33,0,0,1,1.66-.68,2.36,2.36,0,0,1,1.66.68l8.21,8.22L26.42,41.35a6.69,6.69,0,0,1-4.76,2Z"/><path class="cls-1" d="M79.43,30.43a8.81,8.81,0,1,1,0-17.62,8.24,8.24,0,0,1,6.66,3.1l-2.65,1.7a5.77,5.77,0,0,0-4-1.47,5.48,5.48,0,1,0,3.95,9.28l.1-.1V23H78.22V20.37h8.24v6.57A8.71,8.71,0,0,1,79.43,30.43Z"/><path class="cls-1" d="M110.58,25l.34-.18a5.4,5.4,0,0,0,2.92-5c0-3.65-2.58-6.5-5.88-6.5H98.53V30h3.57V16.92h5.22a2.9,2.9,0,0,1,2.9,2.9,2.76,2.76,0,0,1-2.93,2.71h-3.55v3.15H107L109.85,30h4.39Z"/><polygon class="cls-1" points="134.88 13.32 132.15 13.32 123.86 30 127.81 30 128.98 27.63 136.18 27.63 134.9 24.91 130.41 24.91 133.38 18.17 138.99 30 142.87 30 134.88 13.32"/><path class="cls-1" d="M186.13,13.32h-7.79V30h3.49V16.81h4.29a4.66,4.66,0,0,1,4.45,4.83,4.74,4.74,0,0,1-4.45,4.87h-2.65V30h2.66a8.36,8.36,0,0,0,8.34-8.36A8.06,8.06,0,0,0,186.13,13.32Z"/><polygon class="cls-1" points="164.46 30 155.31 19.02 155.31 30 151.81 30 151.81 13.32 155.48 13.32 164.63 24.76 164.63 13.32 168.13 13.32 168.13 30 164.46 30"/><path class="cls-1" d="M142,42.8l-.36-.72H139l-.36.72h-1.22l2.52-5.08h.84l2.43,5.08Zm-2.57-1.57h1.8l-.92-2Z"/><polygon class="cls-1" points="145.33 42.8 145.33 37.72 146.41 37.72 146.41 41.72 148.5 41.72 148.5 42.8 145.33 42.8"/><polygon class="cls-1" points="150.63 42.8 150.63 37.72 151.72 37.72 151.72 41.72 153.8 41.72 153.8 42.8 150.63 42.8"/><rect class="cls-1" x="155.93" y="37.72" width="1.08" height="5.08"/><path class="cls-1" d="M163.74,42.8l-.36-.72h-2.65l-.36.72h-1.22l2.52-5.08h.84l2.43,5.08Zm-2.57-1.57H163l-.93-2Z"/><polygon class="cls-1" points="170.91 42.8 168.16 39.5 168.16 42.8 167.07 42.8 167.07 37.72 168.2 37.72 170.96 41.16 170.96 37.72 172.04 37.72 172.04 42.8 170.91 42.8"/><path class="cls-1" d="M176.85,42.94A2.68,2.68,0,1,1,179,38.6l-.82.52a1.87,1.87,0,0,0-1.28-.51,1.65,1.65,0,1,0,0,3.29,1.83,1.83,0,0,0,1.28-.5l.82.52A2.67,2.67,0,0,1,176.85,42.94Z"/><polygon class="cls-1" points="181.08 42.8 181.08 37.72 184.85 37.72 184.85 38.68 182.16 38.68 182.16 39.79 184.29 39.79 184.29 40.74 182.16 40.74 182.16 41.85 184.85 41.85 184.85 42.8 181.08 42.8"/><path class="cls-1" d="M80.22,42.79V37.67H82.7a1.89,1.89,0,0,1,1.81,1.88v.24a2,2,0,0,1-2,1.87H81.33v1.13Zm1.11-2.24H82.5a.87.87,0,0,0,.88-.88.86.86,0,0,0-.86-.88H81.33Z"/><path class="cls-1" d="M89.73,42.79l-.87-1.32H87.79v1.32H86.67V37.67h2.49a1.89,1.89,0,0,1,1.8,2,1.65,1.65,0,0,1-.89,1.53l-.1,0,1.13,1.54Zm-1.94-2.31H89a.82.82,0,0,0,.88-.81.88.88,0,0,0-.87-.88H87.79Z"/><path class="cls-1" d="M96,42.93a2.7,2.7,0,1,1,2.7-2.69A2.7,2.7,0,0,1,96,42.93Zm0-4.36a1.66,1.66,0,1,0,1.66,1.67A1.66,1.66,0,0,0,96,38.57Z"/><path class="cls-1" d="M100.82,42.79V37.67h2.48a1.89,1.89,0,0,1,1.81,1.88v.24a2,2,0,0,1-2,1.87h-1.18v1.13Zm1.11-2.24h1.17a.87.87,0,0,0,.88-.88.86.86,0,0,0-.86-.88h-1.19Z"/><polygon class="cls-1" points="107.27 42.79 107.27 37.67 111.07 37.67 111.07 38.63 108.36 38.63 108.36 39.76 110.5 39.76 110.5 40.71 108.36 40.71 108.36 41.84 111.07 41.84 111.07 42.79 107.27 42.79"/><path class="cls-1" d="M116.29,42.79l-.87-1.32h-1.07v1.32h-1.12V37.67h2.49a1.9,1.9,0,0,1,1.81,2,1.66,1.66,0,0,1-.9,1.53l-.09,0,1.12,1.54Zm-1.94-2.31h1.16a.83.83,0,0,0,.89-.81.89.89,0,0,0-.88-.88h-1.17Z"/><polygon class="cls-1" points="121.34 42.79 121.34 38.63 119.33 38.63 119.33 37.67 124.44 37.67 124.44 38.63 122.43 38.63 122.43 42.79 121.34 42.79"/><polygon class="cls-1" points="128.48 42.79 128.48 40.62 126.33 37.67 127.69 37.67 129.18 39.66 130.66 37.67 132.01 37.67 129.88 40.62 129.88 42.79 128.48 42.79"/></svg>