<svg width="26" height="44" viewBox="0 0 26 44" fill="none" xmlns="http://www.w3.org/2000/svg">
<path fill-rule="evenodd" clip-rule="evenodd" d="M13.6791 2.22446L25.7367 13.5059C26.072 13.8196 26.0893 14.3457 25.7757 14.6811C25.462 15.0163 24.9364 15.0343 24.6005 14.7203L23.0897 13.3067V24.2302C23.0897 24.6895 22.7174 25.0618 22.2581 25.0618H16.0214C15.5621 25.0618 15.1899 24.6896 15.1899 24.2302V18.9914H11.0044V24.2302C11.0044 24.6895 10.6322 25.0617 10.1728 25.0617H3.96387C3.5046 25.0617 3.13232 24.6895 3.13232 24.2302V13.1284L1.39425 14.7252C1.23459 14.8719 1.03278 14.9445 0.831843 14.9445C0.607034 14.9445 0.383089 14.8542 0.219269 14.6754C-0.0914615 14.3372 -0.0692701 13.8114 0.268882 13.5006L12.5482 2.21918C12.8683 1.92511 13.3617 1.92704 13.6791 2.22446ZM4.79541 11.6005V23.3986H9.34124V18.1598C9.34124 17.7006 9.71347 17.3283 10.1728 17.3283H16.0214C16.4807 17.3283 16.853 17.7005 16.853 18.1598V23.3986H21.4265V11.7506L13.1059 3.96545L4.79541 11.6005Z" fill="#7C7C7C" fill-opacity="0.75"/>
<path d="M6.36719 35.4512H9.18555L9.83008 34.6543L11.2363 35.3926C11.3809 35.4707 11.4531 35.5605 11.4531 35.6621C11.4531 35.7598 11.3887 35.8711 11.2598 35.9961L10.9727 36.2656V40.1504C10.9727 40.4629 10.9883 40.9492 11.0195 41.6094C11.0312 41.9258 11.0391 42.1699 11.043 42.3418L9.38477 42.6582V41.6738H4.64453V42.4004L2.98047 42.6699C2.98438 42.5059 2.99414 42.2441 3.00977 41.8848C3.03711 41.1934 3.05078 40.668 3.05078 40.3086V36.248C3.05078 35.9082 3.04688 35.6406 3.03906 35.4453L3.02148 35.082C3.01758 35.0039 3.01172 34.9004 3.00391 34.7715L4.86133 35.4512H5.43555L5.5 34.9531C5.55078 34.5234 5.58984 34.1875 5.61719 33.9453H2.58789C2.32617 33.9453 2.04688 33.9883 1.75 34.0742L1.43359 33.4883H4.99609C4.85547 33.4258 4.73242 33.2793 4.62695 33.0488C4.36133 32.4238 4.07617 31.9492 3.77148 31.625L3.87695 31.4375C3.96289 31.457 4.10156 31.4844 4.29297 31.5195C4.94141 31.6523 5.38477 31.7832 5.62305 31.9121C5.95117 32.0996 6.11523 32.3574 6.11523 32.6855C6.10352 33.0996 5.92578 33.3672 5.58203 33.4883H7.78516C8 32.6719 8.13086 31.9648 8.17773 31.3672L10.0527 31.8125C10.1621 31.8398 10.2324 31.8691 10.2637 31.9004C10.2988 31.9277 10.3164 31.9746 10.3164 32.041C10.3164 32.1309 10.2832 32.1953 10.2168 32.2344C10.1543 32.2695 10.0234 32.2988 9.82422 32.3223C9.42969 32.748 8.9707 33.1367 8.44727 33.4883H10.3281L11.1367 32.4863L12.625 33.7402L12.5137 33.9453H7.69727C7.45898 34.2852 7.25391 34.5527 7.08203 34.748C6.88281 34.9707 6.64453 35.2051 6.36719 35.4512ZM4.64453 41.2168H9.38477V39.7227H4.64453V41.2168ZM4.64453 39.2773H9.38477V37.7773H4.64453V39.2773ZM4.64453 37.332H9.38477V35.9141H4.64453V37.332ZM19.2754 39.8223C18.8184 40.7559 17.9824 41.4629 16.7676 41.9434C16.1426 42.1895 15.1855 42.4355 13.8965 42.6816L13.8086 42.4121C14.9805 41.9004 15.8672 41.4238 16.4688 40.9824C17.1055 40.5215 17.5547 40.0117 17.8164 39.4531C18.0664 38.9219 18.1914 38.248 18.1914 37.4316V36.2891C18.1914 36.0508 18.1797 35.7676 18.1562 35.4395L19.9023 35.7207C20.0703 35.748 20.1543 35.8164 20.1543 35.9258C20.1543 36.0117 20.084 36.0898 19.9434 36.1602L19.7266 36.2598V37.543C19.7031 38.2266 19.6348 38.7637 19.5215 39.1543C19.4902 39.2676 19.4492 39.3945 19.3984 39.5352L19.6738 39.5879C20.4707 39.748 21.0664 39.877 21.4609 39.9746C21.9531 40.0957 22.3828 40.2344 22.75 40.3906C23.3477 40.6523 23.6465 41.0352 23.6465 41.5391C23.6465 41.8555 23.5586 42.1133 23.3828 42.3125C23.2305 42.4844 23.0449 42.5703 22.8262 42.5703C22.6895 42.5703 22.5605 42.5273 22.4395 42.4414C22.3223 42.3594 22.1445 42.1914 21.9062 41.9375C21.5703 41.5703 21.2617 41.2676 20.9805 41.0293C20.6445 40.748 20.3477 40.5176 20.0898 40.3379C19.9062 40.2168 19.6348 40.0449 19.2754 39.8223ZM19.832 32.7793C19.2969 33.5293 18.8613 34.0664 18.5254 34.3906H21.209L21.7773 33.6816L23.1895 34.3965C23.3496 34.4785 23.4297 34.5684 23.4297 34.666C23.4297 34.748 23.3691 34.8496 23.248 34.9707L22.9727 35.2578V37.666C22.9727 37.877 22.9844 38.2852 23.0078 38.8906C23.0195 39.1836 23.0273 39.4219 23.0312 39.6055L21.4082 39.8984V34.8477H16.5918V39.9863L14.9746 40.2559L15.0273 38.1699C15.0312 38.0332 15.0332 37.9297 15.0332 37.8594V35.0352C15.0332 34.5781 15.0156 34.1582 14.9805 33.7754L16.8379 34.3906H17.5352C17.625 33.8164 17.6797 33.2793 17.6992 32.7793H14.7871H14.582C14.3086 32.7793 14.0234 32.8203 13.7266 32.9023L13.4219 32.3223H22.2871L23.0898 31.373L24.5547 32.5742L24.4434 32.7793H19.832Z" fill="#7C7C7C" fill-opacity="0.75"/>
</svg>
