<svg width="19" height="17" viewBox="0 0 19 17" fill="none" xmlns="http://www.w3.org/2000/svg">
<path fill-rule="evenodd" clip-rule="evenodd" d="M9.24478 2.57071L16.6399 9.96588V15.1511C16.6399 15.6415 16.4452 16.1117 16.0985 16.4584C15.7517 16.8051 15.2815 16.9999 14.7912 16.9999H3.6984C3.20807 16.9999 2.73782 16.8051 2.39111 16.4584C2.04439 16.1117 1.84961 15.6415 1.84961 15.1511V9.96588L9.24478 2.57071ZM15.4074 1.59331V5.90716L12.9424 3.44211V1.59331C12.9424 1.42987 13.0073 1.27312 13.1229 1.15755C13.2384 1.04198 13.3952 0.977051 13.5586 0.977051H14.7912C14.9546 0.977051 15.1114 1.04198 15.2269 1.15755C15.3425 1.27312 15.4074 1.42987 15.4074 1.59331Z" fill="#C79F62"/>
<path fill-rule="evenodd" clip-rule="evenodd" d="M8.37334 0.360868C8.60448 0.129804 8.91792 0 9.24474 0C9.57156 0 9.885 0.129804 10.1161 0.360868L18.3088 8.55225C18.4245 8.66797 18.4895 8.82492 18.4895 8.98857C18.4895 9.15222 18.4245 9.30916 18.3088 9.42488C18.193 9.5406 18.0361 9.60561 17.8724 9.60561C17.7088 9.60561 17.5518 9.5406 17.4361 9.42488L9.24474 1.23227L1.05336 9.42488C0.93764 9.5406 0.780692 9.60561 0.617043 9.60561C0.453393 9.60561 0.296446 9.5406 0.180728 9.42488C0.0650097 9.30916 0 9.15222 0 8.98857C0 8.82492 0.0650097 8.66797 0.180728 8.55225L8.37334 0.360868Z" fill="#C79F62"/>
</svg>
