<svg width="17" height="17" viewBox="0 0 17 17" fill="none" xmlns="http://www.w3.org/2000/svg">
<path d="M12.6696 10.5064C12.6586 10.3094 12.6368 10.2073 12.6477 10.1088C12.7279 9.31377 12.6331 8.54059 12.3195 7.80387C12.21 7.54493 12.2647 7.37352 12.458 7.18752C12.9212 6.74986 13.3698 6.29762 13.8148 5.84174C14.3035 5.33844 14.5916 4.75126 14.2889 4.05466C13.9424 3.26689 13.3625 2.70888 12.4799 2.57029C12.0569 2.51194 11.6703 2.65782 11.3676 2.95689C10.1968 4.11301 9.02613 5.26914 7.88459 6.4508C7.33752 7.0161 7.31564 7.71999 7.746 8.37647C7.87729 8.58071 8.04871 8.75941 8.20553 8.94541C8.6213 9.45236 8.59212 10.1854 8.13624 10.6559C7.70223 11.1045 6.97646 11.1884 6.4841 10.7726C5.0435 9.56542 4.10984 7.0854 5.7328 5.11232C6.89987 3.6936 8.27847 2.44629 9.58049 1.13699C9.83214 0.885336 10.1421 0.681099 10.4558 0.509686C11.9547 -0.303617 13.4026 -0.103026 14.7703 0.823336C15.9009 1.59287 16.6704 2.63229 16.8893 4.01454C17.0607 5.10502 16.8309 6.13351 16.1343 6.97598C15.4341 7.82211 14.6281 8.588 13.8658 9.38307C13.5886 9.67483 13.3005 9.95566 13.0124 10.2401C12.9322 10.324 12.8373 10.3824 12.6696 10.5064Z" fill="#C79F62"/>
<path d="M4.60952 16.9982C2.21338 16.9216 0.0944216 14.872 0.00324427 12.4941C-0.0368738 11.4619 0.295012 10.5101 1.00255 9.7551C1.97997 8.70839 3.00845 7.70908 4.0187 6.69519C4.0734 6.64048 4.16458 6.6259 4.23752 6.59307C4.2667 6.67695 4.31046 6.76084 4.31776 6.84472C4.36882 7.47567 4.40893 8.10297 4.45999 8.73392C4.46729 8.83604 4.50376 8.94545 4.55847 9.03298C4.78458 9.39769 4.68611 9.66028 4.37611 9.93746C3.91658 10.3459 3.49716 10.7982 3.07045 11.2431C2.41033 11.9324 2.33374 12.6655 2.91727 13.4168C3.18351 13.7596 3.54457 14.0514 3.91293 14.2775C4.48552 14.6313 5.09094 14.5291 5.55412 14.0806C6.7686 12.9098 7.95756 11.7136 9.12463 10.4955C9.56593 10.0359 9.62063 9.4451 9.31792 8.86886C9.16839 8.58074 8.94957 8.32909 8.74533 8.07015C8.31862 7.52308 8.3478 6.78637 8.82557 6.33778C9.32887 5.8673 10.0765 5.84906 10.5835 6.34142C11.4916 7.22767 12.0314 8.29626 12.035 9.58734C12.0387 10.5976 11.6703 11.4948 10.9883 12.2132C9.77746 13.4897 8.5338 14.737 7.26461 15.9588C6.50237 16.6919 5.51765 17.0274 4.60952 16.9982Z" fill="#C79F62"/>
</svg>
